# xmcd
#
# Track frame offsets:
#	150
#	31427
#	47512
#	61252
#	75672
#	90005
#	102954
#	110042
#	121345
#	173427
#	232557
#	261184
#
# Disc length: 3862 seconds
# Revision: 0
# Processed by: cddbd v1.5.2PL0 Copyright (c) Steve Scherf et al.
# Submitted via: dBpowerAMP V12.0
#
DISCID=820f140c
DTITLE=Fleetwood Mac - Pious Bird Of Good Omen
DYEAR=1969
DGENRE=Rock
TTITLE0=Need Your Love So Bad (Version #2, Take 2)
TTITLE1=Rambling Pony
TTITLE2=I Believe My Time Ain't Long
TTITLE3=The Sun Is Shining
TTITLE4=Albatross
TTITLE5=Black Magic Woman
TTITLE6=Jigsaw Puzzle Blues
TTITLE7=Like Crying
TTITLE8=Need Your Love So Bad (Version #1, Take 1, 2 and 3)
TTITLE9=Need Your Love So Bad (Version #2, Take 1 and 2)
TTITLE10=Need Your Love So Bad (Take 3)
TTITLE11=Need Your Love So Bad (USA Version)
EXTD=
EXTT0=
EXTT1=
EXTT2=
EXTT3=
EXTT4=
EXTT5=
EXTT6=
EXTT7=
EXTT8=
EXTT9=
EXTT10=
EXTT11=
PLAYORDER=
